<svg width="1892" height="1254" fill="none" xmlns="http://www.w3.org/2000/svg"><path fill-rule="evenodd" clip-rule="evenodd" d="M297.708 1109.95V558.872l-477.251 275.541 477.251 275.537zm-1-1.73V560.604l-474.251 273.809 474.251 273.807z" fill="#EBEBEB"/><circle cx="296.896" cy="1108.88" r="5" transform="rotate(-30 296.896 1108.88)" fill="#F2F2F2"/><circle cx="297.053" cy="559.153" r="5" transform="rotate(-30 297.053 559.153)" fill="#F2F2F2"/><path fill-rule="evenodd" clip-rule="evenodd" d="M426.095 258.643V.515L202.549 129.58l223.546 129.064zm-1-1.732V2.247L204.549 129.58l220.546 127.332zM1668.06 416.515v258.128l223.55-129.064-223.55-129.064zm1 1.732v254.664l220.55-127.332-220.55-127.332zM836.374 812.165l477.246-275.54-477.246-275.541v551.081zm1-1.732l474.246-273.808-474.246-273.809v547.617z" fill="#EBEBEB"/><circle cx="836.739" cy="261.198" r="5" transform="rotate(30 836.739 261.198)" fill="#F2F2F2"/><circle cx="836.896" cy="810.926" r="5" transform="rotate(30 836.896 810.926)" fill="#F2F2F2"/><circle cx="1313.05" cy="536.198" r="5" transform="rotate(30 1313.05 536.198)" fill="#F2F2F2"/></svg>